<?xml version="1.0" encoding="utf-8"?>
<!-- Generator: Adobe Illustrator 27.8.1, SVG Export Plug-In . SVG Version: 6.00 Build 0)  -->
<svg version="1.1" id="Capa_1" xmlns="http://www.w3.org/2000/svg" xmlns:xlink="http://www.w3.org/1999/xlink" x="0px" y="0px"
	 viewBox="0 0 56.5 65.9" style="enable-background:new 0 0 56.5 65.9;" xml:space="preserve">
<path d="M32.5,11.9c0-4.1-2.4-7.4-5.3-7.4s-5.3,3.3-5.3,7.4s2.4,7.4,5.3,7.4S32.5,15.9,32.5,11.9z M33.8,59.9V30.1
	c2.5-1.7,4.5-4.2,6.1-7.4l1.5-3.2c0.8-1.7,0.4-4-0.8-5.1 M40.6,14.3c-1.2-1.2-2.9-0.6-3.7,1.1l-1.5,3.2c-1.8,3.8-4.9,6.2-8.2,6.2
	c-1.1,0-2.1-0.2-3-0.6C24.1,24.1,24,24.1,24,24l0,0c-1.9-0.9-3.7-2.8-4.9-5.3l-1.6-3.4c-0.8-1.7-2.5-2.2-3.7-1s-1.6,3.5-0.7,5.1
	l1.7,3.4c1.5,3.1,3.5,5.6,5.9,7.2v29.9c0,2,1.2,3.7,2.7,3.7c1.5,0,2.7-1.7,2.7-3.7V48.8h2.5v11.1c0,2,1.2,3.7,2.7,3.7
	c1.4,0,2.7-1.7,2.7-3.7"/>
</svg>
