<?xml version="1.0" encoding="utf-8"?>
<!-- Generator: Adobe Illustrator 27.8.1, SVG Export Plug-In . SVG Version: 6.00 Build 0)  -->
<svg version="1.1" id="Capa_1" xmlns="http://www.w3.org/2000/svg" xmlns:xlink="http://www.w3.org/1999/xlink" x="0px" y="0px"
	 viewBox="0 0 162 173.1" style="enable-background:new 0 0 162 173.1;" xml:space="preserve">
<style type="text/css">
	.st0{fill:#DD2828;}
</style>
<g id="XMLID_00000072988309136963915610000014283264736314222988_">
	<g>
		<path class="st0" d="M82.1,17.7c37.8,0,68.5,30.7,68.5,68.5s-30.7,68.5-68.5,68.5S13.6,124,13.6,86.2S44.3,17.7,82.1,17.7z
			 M137.8,86.2c0-30.7-24.9-55.7-55.7-55.7s-55.7,25-55.7,55.7s24.9,55.7,55.7,55.7S137.8,116.9,137.8,86.2z"/>
		<path class="st0" d="M103.7,64.5c2.5,2.5,2.5,6.6,0,9.1L91.1,86.2l12.6,12.6c2.5,2.5,2.5,6.6,0,9.1s-6.6,2.5-9.1,0L82.1,95.2
			l-12.6,12.6c-2.5,2.5-6.6,2.5-9.1,0s-2.5-6.6,0-9.1L73,86.1L60.4,73.6c-2.5-2.5-2.5-6.6,0-9.1s6.6-2.5,9.1,0l12.6,12.6l12.6-12.6
			C97.1,62,101.2,62,103.7,64.5z"/>
	</g>
</g>
</svg>
